Coordinates
version=1
nRows=17
nColumns=36
inDegrees=yes

Units are S.I. units (second, meters, Newtons, ...)
If the header above contains a line with 'inDegrees', this indicates whether rotational values are in degrees (yes) or radians (no).

endheader
time	pelvis_tilt	pelvis_list	pelvis_rotation	pelvis_tx	pelvis_ty	pelvis_tz	hip_flexion_r	hip_adduction_r	hip_rotation_r	knee_angle_r	knee_angle_r_beta	ankle_angle_r	subtalar_angle_r	mtp_angle_r	hip_flexion_l	hip_adduction_l	hip_rotation_l	knee_angle_l	knee_angle_l_beta	ankle_angle_l	subtalar_angle_l	mtp_angle_l	lumbar_extension	lumbar_bending	lumbar_rotation	arm_flex_r	arm_add_r	arm_rot_r	elbow_flex_r	pro_sup_r	arm_flex_l	arm_add_l	arm_rot_l	elbow_flex_l	pro_sup_l
      3.98333330	    -14.40751460	      4.81955561	     -5.92753283	      0.11520985	      1.05211272	      0.12241805	     43.71066203	     -1.90057776	      0.50839395	     71.53286597	      1.24848403	     39.16829247	    -21.45650524	     -7.49999987	     41.88081133	     -0.85096462	      3.52475922	     69.80024325	      1.21824406	     38.15003806	    -12.00187560	     -7.49999987	    -22.59606533	      1.80126590	     -3.68241003	     28.93299582	     -8.57588990	     23.04290969	     23.66969061	     88.20186028	     36.44392428	    -12.11636828	     24.04988544	     24.06089587	     75.36558783
      4.00000000	    -15.17172756	      5.01642393	     -6.00273645	      0.12370954	      1.05288764	      0.12298982	     43.23094362	     -1.66929927	      0.92020601	     71.08349450	      1.24064102	     39.58508124	    -21.51912747	     -7.49999987	     41.75100407	     -0.43171018	      3.80746046	     69.81755168	      1.21854615	     38.64167062	    -12.39379057	     -7.49999987	    -20.65532888	      1.89149449	     -3.74736642	     32.05497682	     -8.14757507	     22.76944913	     24.92168464	     88.19279787	     39.76568077	    -11.65593932	     23.69475385	     25.37602952	     75.36536087
      4.01666670	    -15.94980214	      5.20493271	     -6.14355665	      0.12900952	      1.05263876	      0.12223183	     43.00461104	     -1.70139194	      1.07894537	     70.72067920	      1.23430870	     39.24612285	    -21.98783476	     -7.49999987	     41.60311707	      0.13847952	      4.37451927	     69.37856335	      1.21088436	     38.82449735	    -13.30959989	     -7.49999987	    -19.30112429	      2.02154322	     -3.45591759	     33.62281190	     -8.59354159	     17.24195605	     31.16937835	     94.61867286	     41.17326180	    -10.89905662	     14.06538637	     32.76632889	     84.34922082
      4.03333330	    -16.42075741	      5.43277808	     -6.21893189	      0.14497921	      1.05678430	      0.12724898	     42.04452482	     -1.72221442	      1.43127146	     69.39003018	      1.21108449	     39.09442756	    -22.25775223	     -7.49999987	     40.45182791	      0.53220650	      4.80561982	     67.76016891	      1.18263805	     38.90728701	    -13.33983397	     -7.49999987	    -17.50862272	      1.81450494	     -3.21346779	     34.89177035	     -9.30870291	     16.84855776	     35.73468148	     94.59390419	     42.62012564	    -11.11225879	     13.73010344	     38.18480429	     84.62042927
      4.05000000	    -17.30281880	      5.71519203	     -6.11230066	      0.14977742	      1.05725474	      0.12988499	     41.65614899	     -1.78384655	      1.37209478	     68.12792580	      1.18905662	     38.26964873	    -23.04569212	     -7.49999987	     40.37549370	      0.83883619	      5.07712987	     66.71156250	      1.16433641	     38.14780429	    -14.51895716	     -7.49999987	    -15.08180590	      1.51409888	     -3.10075170	     36.79223335	    -10.02121267	     17.03705128	     41.43201117	     92.40604272	     44.61362699	    -11.78837600	     13.60053837	     44.01129428	     82.47887900
      4.06666670	    -17.77159405	      5.74626590	     -6.11168181	      0.16699340	      1.05818721	      0.13396969	     40.04905291	     -1.59161569	      1.44644895	     66.30617724	      1.15726111	     38.72737792	    -22.37064124	     -7.49999987	     39.17234568	      0.59234789	      5.19202650	     65.55467343	      1.14414489	     37.72274701	    -14.64856826	     -7.49999987	    -12.61387240	      1.31761080	     -3.07472502	     37.63779583	    -11.45921036	     18.16084765	     49.18414580	     93.22140187	     44.78744338	    -13.37014023	     14.39306644	     52.03423732	     83.36425638
      4.08333330	    -18.37366897	      5.64761617	     -6.13474933	      0.18195137	      1.05929223	      0.13714248	     38.40299370	     -1.28862858	      1.31587212	     63.98581043	      1.11676307	     39.54250108	    -21.51601446	     -7.49999987	     37.95438117	      0.11036123	      5.13685195	     64.45499072	      1.12495181	     37.77549141	    -14.32443491	     -7.49999987	     -9.79881809	      1.35849401	     -3.19799839	     38.70727044	    -12.99032795	     19.03359655	     56.47865635	     93.88974085	     45.11246595	    -15.47855477	     15.64672584	     59.26927129	     84.06534595
      4.10000000	    -18.89948312	      5.77739893	     -6.10697730	      0.19378033	      1.06639377	      0.13940000	     36.03435264	     -1.45115610	      1.12919339	     60.75645116	      1.06040011	     39.21657553	    -20.99789504	     -7.49999987	     36.82276284	     -0.24835760	      4.63428622	     62.65518494	      1.09353927	     36.81382512	    -14.20907896	     -7.49999987	     -7.08184227	      1.16189033	     -2.86001006	     40.77466857	    -14.75989187	     19.89851227	     62.71070809	     94.32589132	     45.73010026	    -17.09350703	     17.29520058	     65.66898191	     84.59541481
      4.11666670	    -19.62880325	      5.78552691	     -5.97257029	      0.20625328	      1.07007048	      0.14349891	     34.31478187	     -1.56998308	      0.60112678	     57.83716874	      1.00944902	     38.82307588	    -19.95382741	     -7.49999987	     36.15565756	     -0.89189363	      3.93995128	     61.63113504	      1.07566623	     35.30209443	    -13.47976589	     -7.49999987	     -4.07108086	      1.18529033	     -2.45816796	     43.33803278	    -16.35955904	     20.88161521	     67.79967430	     94.58233361	     46.60968293	    -18.79784195	     19.40105351	     71.06400098	     85.01896692
      4.13333330	    -19.77534457	      5.96496360	     -5.88350690	      0.22634928	      1.08542837	      0.14706305	     30.91286370	     -2.01541105	     -0.02065934	     53.36851172	      0.93145625	     36.95734586	    -19.01558409	     -7.49999987	     34.74686205	     -1.30122831	      3.19012396	     60.24044938	      1.05139418	     32.32873154	    -12.61386523	     -7.49999987	     -1.29748100	      0.91290144	     -1.95913636	     44.44375196	    -17.01421963	     21.06132903	     72.09524744	     91.63733067	     45.86999602	    -19.18412708	     20.28503809	     75.99355821	     83.06532290
      4.15000000	    -19.71465368	      6.13461408	     -5.96347000	      0.24784754	      1.10174117	      0.15066630	     26.85059058	     -2.41685684	     -0.89402097	     47.38988369	      0.82710950	     34.57508203	    -18.02454369	     -7.49999987	     33.37785100	     -1.82449478	      2.05006153	     59.37857424	      1.03635163	     28.51629367	    -11.79823143	     -7.49999987	      1.26137173	      0.54026850	     -1.67051564	     44.53012738	    -16.32869873	     20.99490689	     74.08270749	     88.26049889	     44.89348234	    -19.32299555	     21.01129744	     78.77352912	     80.67736466
      4.16666670	    -19.28669730	      6.78470946	     -6.08761470	      0.27010113	      1.11822674	      0.15203552	     22.31719645	     -3.58499555	     -1.81036052	     41.42636726	      0.72302651	     30.60461552	    -17.11098249	     -7.49999987	     31.95635568	     -1.60570983	      0.57043247	     58.62573598	      1.02321212	     23.76284549	    -10.98430785	     -7.49999987	      2.94875971	     -0.27800217	     -1.71916808	     45.21585069	    -14.85092776	     21.33879189	     73.56254898	     85.78894890	     44.34171968	    -19.43819281	     22.42276701	     78.98432207	     79.02782621
      4.18333330	    -18.52696174	      7.57925653	     -6.24726790	      0.29106495	      1.13845793	      0.15596975	     17.45782393	     -4.79956061	     -2.54677184	     35.31485140	      0.61636043	     26.42752153	    -15.17839848	     -7.49999987	     29.86527157	     -1.34755095	     -1.13260647	     57.05858585	      0.99586019	     18.51321094	    -10.13094351	     -7.49999987	      4.44102237	     -1.24145816	     -2.02011668	     44.71302164	    -13.07539656	     21.47890375	     73.01693994	     89.02424373	     43.57305434	    -19.66939037	     23.12724190	     77.84307700	     82.33313466
      4.20000000	    -17.70622434	      8.46800794	     -6.28049206	      0.31041019	      1.15591918	      0.15739130	     13.06377306	     -6.21326055	     -3.61543095	     30.54715901	      0.53314850	     21.06595103	    -13.35405079	     -7.49999987	     28.29767862	     -0.93942132	     -2.88855277	     55.45317185	      0.96784043	     12.55934846	    -10.21494858	     -7.49999987	      5.20677661	     -2.44344248	     -1.76758843	     45.77582037	    -11.76706483	     22.00131341	     70.92069642	     86.04557681	     45.03970174	    -19.50139021	     26.00969805	     74.90189840	     80.32850667
      4.21666670	    -16.89174131	      9.42420854	     -6.03219228	      0.33351997	      1.17019257	      0.15981797	      9.37256832	     -7.68445073	     -4.74143663	     26.95250580	      0.47040997	     16.38488625	    -11.75291551	     -7.49999987	     27.40975869	     -0.29431462	     -4.00752168	     54.86079071	      0.95750143	      9.65100489	    -11.31188193	     -7.49999987	      5.80819194	     -3.73436847	     -0.91273041	     47.20768521	    -10.97308138	     22.23769192	     68.87497103	     86.12394433	     45.78816502	    -18.51173584	     27.66294794	     73.43652301	     80.58235506
      4.23333330	    -16.11924328	     10.05255777	     -5.92360969	      0.35290613	      1.18253935	      0.16088958	      7.45285240	     -8.73337919	     -5.25835035	     26.03043922	      0.45431687	     11.77782853	    -11.51883491	     -7.49999987	     27.53493730	     -0.09398400	     -4.93784066	     55.12682404	      0.96214459	      8.23334863	    -13.07194563	     -7.49999987	      6.19715749	     -4.90808465	      0.26236572	     47.50944102	    -11.58330993	     22.83989282	     68.26030971	     84.18099254	     48.25632454	    -17.63533759	     32.29017214	     70.08919796	     79.49261915
      4.25000000	    -15.15561040	     10.22742986	     -5.75978779	      0.37161249	      1.19835090	      0.16199714	      6.64250884	     -9.41495013	     -5.69018590	     27.19510174	      0.47464407	      6.65903931	    -12.15715860	     -7.49999987	     27.91181388	     -0.25880742	     -5.41492199	     55.79238321	      0.97376078	      6.51823354	    -15.29872440	     -7.49999987	      5.48971831	     -5.44347944	      0.06215214	     47.66702649	    -11.21017457	     23.35058422	     68.56615430	     83.59044441	     48.75559716	    -17.75624398	     33.18131290	     69.99158750	     79.00978207
